<?xml version="1.0" encoding="utf-8"?>
<!-- Generator: Adobe Illustrator 25.0.0, SVG Export Plug-In . SVG Version: 6.00 Build 0)  -->
<svg version="1.1" id="Camada_1" xmlns="http://www.w3.org/2000/svg" xmlns:xlink="http://www.w3.org/1999/xlink" x="0px" y="0px"
	 viewBox="0 0 100 100" style="enable-background:new 0 0 100 100;" xml:space="preserve">
<g>
	<g>
		<path d="M53.6,25.3c-5-2.5-11.4,0.2-16.1,2.3c-5,2.2-10.7,5.1-14,9.6c-3.5,4.7-3.8,11.3-3,16.9c0.8,5.5,3.2,10.9,7.5,14.6
			c8.9,7.6,21.7,7.2,32,2.9c4.5-1.9,9-5,11.3-9.5c2.5-4.9,2.8-11.2,2-16.6c-0.9-6-3.6-11.8-8.1-15.9c-4.2-3.9-9.7-6.4-15.5-6.5
			c-1.6,0-1.6,2.5,0,2.5c9.6,0.3,17.5,7.4,20.3,16.3c1.5,4.8,1.6,10.1,0.5,15c-1,4.8-4.1,8.3-8.3,10.8c-8.4,4.9-20,6.5-28.8,1.7
			c-4.4-2.4-7.6-6.2-9.2-10.9c-1.7-5-2.2-11-0.5-16.1c1.8-5.5,7.3-8.7,12.1-11.2c2.7-1.4,5.5-2.5,8.4-3.4c2.6-0.8,5.6-1.6,8.2-0.3
			C53.8,28.2,55.1,26,53.6,25.3L53.6,25.3z"/>
	</g>
</g>
<g>
	<g>
		<path d="M38.1,37c0.4,4,0.2,8-0.5,12c-0.1,0.7,0.2,1.3,0.9,1.5c0.6,0.2,1.4-0.2,1.5-0.9c0.8-4.2,1-8.4,0.6-12.6
			c-0.1-0.7-0.5-1.2-1.2-1.2C38.7,35.8,38,36.3,38.1,37L38.1,37z"/>
	</g>
</g>
<g>
	<g>
		<path d="M51.7,36.6c0,5.2,0,10.5,0,15.7c0,1.6,2.5,1.6,2.5,0c0-5.2,0-10.5,0-15.7C54.2,35,51.7,35,51.7,36.6L51.7,36.6z"/>
	</g>
</g>
<g>
	<g>
		<path d="M42.8,57.9c3,0.2,6,0.4,8.9,0.5c1.5,0.1,3,0.2,4.5,0.3c0.4,0,0.7,0,1.1,0.1c0.3,0,0.9,0.2,1.1,0.1
			c0.4-0.2-0.1,0.1-0.1-0.3c0,0.1,0,0.3,0,0.4c0,0.3,0,0.6,0,0.9c0,1,0,2.2-0.5,3.1c-0.5,1.2-1.6,1.6-2.8,1.9
			c-2.6,0.6-5.3,0.5-7.8-0.2c-0.7-0.2-1.4-0.4-2-0.8c-0.6-0.4-0.9-1.1-1.3-1.7c-0.8-1.3-1.4-2.7-1.4-4.3c0-1.6-2.5-1.6-2.5,0
			c0,1.7,0.6,3.3,1.4,4.9c0.8,1.5,1.6,2.9,3.2,3.6c3.1,1.4,6.7,1.7,10,1.1c1.6-0.3,3.3-0.8,4.4-2c1-1.1,1.5-2.4,1.7-3.9
			c0.1-0.7,0.1-1.3,0.1-2c0-0.7,0-1.7-0.3-2.3c-0.4-0.7-1.1-1-1.9-1.1c-1-0.1-2-0.1-3.1-0.2c-4.3-0.3-8.6-0.5-12.9-0.8
			C41.2,55.3,41.2,57.8,42.8,57.9L42.8,57.9z"/>
	</g>
</g>
<g>
	<g>
		<path d="M34.5,37c3.2,0,6.5,0,9.7,0c1.6,0,1.6-2.5,0-2.5c-3.2,0-6.5,0-9.7,0C32.8,34.5,32.8,37,34.5,37L34.5,37z"/>
	</g>
</g>
<g>
	<g>
		<path d="M24,29.1c8.7,0,17.3,0,26-0.1c4.2,0,8.5,0,12.7,0c4.1,0,8.2,0.3,12.2,1.5c1.5,0.5,2.2-1.9,0.7-2.4
			c-3.9-1.2-8.1-1.5-12.2-1.6c-4.3-0.1-8.6,0-12.9,0c-8.8,0-17.6,0-26.5,0.1C22.4,26.6,22.4,29.1,24,29.1L24,29.1z"/>
	</g>
</g>
<g>
	<g>
		<path d="M74.8,28.5c-0.7-1.9-0.5-4.1-1.4-6c-0.8-1.8-2.6-3-4.1-4.2c-3.5-2.7-7.2-5-11.3-6.8c-4.1-1.8-8.1-1.7-12.4-1
			c-4,0.6-8.2,1.8-11.5,4.3c-3.3,2.5-5.8,6.2-5.8,10.5c0,1.6,2.5,1.6,2.5,0c0-7.5,7.9-11,14.1-12.1c3.9-0.7,7.8-1.1,11.5,0.4
			c3.4,1.4,6.7,3.4,9.7,5.6c1.6,1.1,3.7,2.4,4.7,4.1c1.1,1.7,0.7,4,1.5,5.9C73,30.6,75.4,30,74.8,28.5L74.8,28.5z"/>
	</g>
</g>
<g>
	<g>
		<path d="M39.8,16.2c-2.6,0.6-5.1,1.5-7.5,2.8c-1.1,0.6-0.6,2.4,0.6,2.3c3.4-0.2,6.4-1.4,9.1-3.5c1.2-0.9-0.3-2.6-1.5-2
			c-2.4,1.3-4.6,3-6.4,5.1c-0.6,0.7-0.3,2.3,0.9,2.1c1.9-0.2,3.1-1.4,4.2-2.9c1.4-2,2.6-4.1,3.9-6.1c-0.8-0.3-1.5-0.6-2.3-1
			c-0.8,1.9-2,3.7-3.4,5.2c-1,1.1,0.2,2.6,1.5,2c1.7-0.8,3.1-2.2,3.8-3.9c0.5-1.2-0.5-2.2-1.7-1.7c-2.9,1.3-5.7,2.9-8.4,4.7
			c0.5,0.7,1,1.3,1.5,2c1.5-1.4,3-2.7,4.5-4.1c-0.7-0.5-1.3-1-2-1.5c-1.8,2.4-3.6,4.8-5.3,7.3c-0.7,1,0.7,2.4,1.7,1.7
			c1.6-1.1,2.7-2.6,3-4.5c0.2-1.1-1.2-2.3-2.1-1.2c-1.6,1.9-3,3.9-4.1,6.1c-0.7,1.3,0.9,2.4,2,1.5c1-0.8,1.8-1.7,2.6-2.8
			c0.9-1.2-1-2.4-2-1.5c-1,0.9-1.8,2.1-2.4,3.3c-0.5,1.2,0.5,2.2,1.7,1.7c2.4-1.1,4.8-2.1,7.2-3.2c-0.5-0.7-1-1.3-1.5-2
			c-1.6,1.6-3.9,2.2-6.2,1.7c0.1,0.8,0.2,1.5,0.3,2.3c0.9-0.6,2-0.6,3.1-0.7c1.2-0.1,2.4-0.1,3.6-0.2c2.5-0.1,5-0.2,7.5-0.3
			c0-0.8,0-1.7,0-2.5c-4,0.4-8,0.9-12,1.3c0.2,0.8,0.4,1.6,0.6,2.3c4.5-2,9.4-2.8,14.3-2.5c0-0.8,0-1.7,0-2.5
			c-4.7,0.5-9.5,0.6-14.3,0.4c0,0.8,0,1.7,0,2.5c5.3,0.2,10.6-0.5,15.9-1.1c-0.1-0.8-0.2-1.6-0.3-2.5c-3,1.1-6.2,1.4-9.4,0.8
			c-0.1,0.8-0.2,1.6-0.3,2.5c5.8-0.1,11.7-0.1,17.5-0.1c-0.1-0.8-0.2-1.6-0.3-2.5c-4.7,0.7-9.3,1-14,1c0,0.8,0,1.7,0,2.5
			c5.4,0,10.9,0,16.3,0c1.6,0,1.6-2.4,0-2.5c-1.9-0.1-3.8,0.1-5.7,0.6c-1.4,0.3-1.1,2.5,0.3,2.5c2.2,0,4.3-0.1,6.5-0.1
			c1,0,2.1,0,3.1-0.1c0.6,0,2.6-0.4,3.1,0c0.3-0.7,0.6-1.4,0.9-2.1c-2.6,0.1-5.2,0.1-7.9,0.1c0,0.8,0,1.7,0,2.5
			c1.9,0,3.8,0.1,5.7,0.1c1.4,0,1.7-2.1,0.3-2.5c-2.5-0.6-5.2-0.9-7.8-0.6c-1.1,0.1-1.8,1.7-0.6,2.3c4.1,2.1,8.7,2.7,13.3,1.9
			c1.2-0.2,1.2-2.2,0-2.4c-0.2-0.1-0.4-0.9-0.5-1.2c-0.2-0.7-0.6-1.4-1.1-1.9c-1.1-1.2-2.7-2.1-4.1-2.9c-3.1-1.8-6.4-3.2-9.8-4.3
			c-3.5-1.1-7.1-1.7-10.7-1.9c-1.4-0.1-3.1-0.3-4.2,0.6c-1,0.8-0.9,2.3,0.1,3.1c1.4,1.1,3.8,1.6,5.5,1.9c2.1,0.4,4.3,0.6,6.5,0.5
			c1.6-0.1,1.6-2.5,0-2.5c-5.7,0.1-11.3,0.1-17-0.1c0,0.8,0,1.7,0,2.5c7.6-0.4,15.3-0.5,22.9-0.3c-0.1-0.8-0.2-1.6-0.3-2.5
			c-5.7,1.2-11.5,2.3-17.2,3.5c-1.4,0.3-1.1,2.6,0.3,2.5c5.2-0.7,10.5-1.6,15.6-2.8c-0.2-0.8-0.4-1.6-0.7-2.4
			c-6.9,1.6-14,2.4-21.1,2.4c0.1,0.8,0.2,1.6,0.3,2.5c4.9-0.7,9.9-1.1,14.8-1.2c-0.1-0.8-0.2-1.6-0.3-2.5c-2.8,0.9-5.5,2.2-8,3.8
			c-1.1,0.7-0.6,2.3,0.6,2.3c5.4,0.1,10.7-1,15.6-3.2c-0.4-0.7-0.8-1.4-1.3-2.2c-1.3,0.7-3.3,2.3-3.1,4c0.2,2,2.8,1.9,4.3,1.7
			c1.7-0.2,3.8-0.8,4.8-2.3c0.9-1.4,0.4-3.3-0.7-4.4c-1.8-1.7-7.6-2.5-7.8,1.1c-0.1,1.8,1.7,2.6,3.2,2.9c2.3,0.5,4.7,0.6,7,0.3
			c1.6-0.2,1.6-2.4,0-2.5c-2.6-0.1-5.2,0.5-7.3,2c-0.8,0.5-0.9,2.1,0.3,2.3c2.5,0.3,6.1-0.5,6.7-3.4c0.7-3.5-3.5-4.4-6-4.6
			c-1.8-0.2-3.6-0.3-5.3-0.2c-1.2,0-2.9-0.1-3.5,1.2c-0.6,1-0.1,2.4,0.9,3c1.3,0.9,2.9,0.3,4.2-0.5c0.7-0.4,0.9-1.4,0.3-2
			c-3-2.6-6.6-4.1-10.5-4.3c-1.2-0.1-1.8,1.8-0.6,2.3c3.1,1.4,6.4,1.3,9.8,1.5c2.7,0.1,5.9,0.6,7.6,2.9c0.7-0.5,1.3-1,2-1.5
			c-3.4-2.8-7.3-4.8-11.6-6c-1.6-0.4-2.2,1.9-0.7,2.4c2.9,1,5.7,2.1,8.6,3.3c1.3,0.6,2.7,1.1,4,1.8c1.2,0.5,2.3,1.1,2.8,2.4
			c0.4-0.6,0.7-1.3,1.1-1.9c-2,0.1-4,0.3-5.9,0.4c-1.4,0.1-1.7,2.1-0.3,2.5c1.4,0.4,2.8,0.8,4.2,1.2c0.1-0.8,0.2-1.6,0.3-2.5
			c-1.2-0.1-2.4-0.1-3.7-0.2c-1.6-0.1-1.6,2.4,0,2.5c1.2,0.1,2.4,0.1,3.7,0.2c1.4,0.1,1.7-2.1,0.3-2.5c-1.4-0.4-2.8-0.8-4.2-1.2
			c-0.1,0.8-0.2,1.6-0.3,2.5c2-0.1,4-0.3,5.9-0.4c1-0.1,1.5-1,1.1-1.9c-1.2-2.7-4.6-3.7-7.1-4.8c-3.2-1.4-6.5-2.6-9.7-3.8
			c-0.2,0.8-0.4,1.6-0.7,2.4c3.8,1,7.4,2.8,10.5,5.4c1,0.8,2.9-0.3,2-1.5c-1.8-2.5-4.6-3.5-7.6-3.9c-3.5-0.5-7.4,0.2-10.7-1.4
			c-0.2,0.8-0.4,1.6-0.6,2.3c3.2,0.2,6.3,1.4,8.8,3.6c0.1-0.7,0.2-1.3,0.3-2c-0.3,0.2-0.7,0.4-1.1,0.5c-0.1,0-0.9,0.1-0.6,0.5
			c0.1,0.2,2-0.1,2.3-0.1c1.6,0,3.1,0.1,4.6,0.3c0.8,0.1,3.4,0.3,3.3,1.6c-0.1,1.3-2.6,1.7-3.6,1.5c0.1,0.8,0.2,1.5,0.3,2.3
			c1.8-1.2,3.9-1.8,6.1-1.7c0-0.8,0-1.7,0-2.5c-2.1,0.2-4.2,0.2-6.3-0.3c-0.3-0.1-1.1-0.1-1.3-0.4c0,0-0.1,0.1-0.1,0.1
			c0.1-0.1,0.3-0.2,0.5-0.2c0.7-0.2,1.5,0,2.2,0.2c0.6,0.2,1.5,0.8,1.3,1.6c-0.2,0.8-1.8,1.1-2.4,1.2c-0.5,0.1-1,0.2-1.6,0.2
			c-0.1,0-0.3,0-0.4,0c-0.6-0.2-0.6,0.1-0.1,0.7c0,0,0.6-0.8,0.7-0.9c0.4-0.4,0.8-0.6,1.2-0.9c1.4-0.8,0.2-2.8-1.3-2.2
			c-4.5,2-9.4,3-14.3,2.9c0.2,0.8,0.4,1.6,0.6,2.3c2.3-1.5,4.8-2.6,7.4-3.5c1.3-0.4,1.1-2.5-0.3-2.5c-5.2,0.1-10.4,0.6-15.5,1.3
			c-1.4,0.2-1,2.5,0.3,2.5c7.3,0,14.6-0.8,21.8-2.5c1.6-0.4,0.9-2.8-0.7-2.4c-4.9,1.1-9.9,2-15,2.7c0.1,0.8,0.2,1.6,0.3,2.5
			c5.7-1.2,11.5-2.3,17.2-3.5c1.4-0.3,1-2.4-0.3-2.5c-7.6-0.2-15.3-0.1-22.9,0.3c-1.6,0.1-1.6,2.4,0,2.5c5.7,0.2,11.3,0.2,17,0.1
			c0-0.8,0-1.7,0-2.5c-2,0.1-4-0.1-6-0.5c-1-0.2-2.1-0.5-3.1-0.9c-0.2-0.1-1.2-0.5-1.2-0.5c-0.2,0.6-0.2,0.8,0.1,0.7
			c0.1,0,0.3-0.1,0.4,0c1.8-0.1,3.9,0.2,5.7,0.5c1.9,0.3,3.7,0.7,5.5,1.2c3.6,1,7.1,2.5,10.4,4.5c1.4,0.9,3.2,1.7,3.8,3.4
			c0.4,1.2,0.8,2.4,2.1,2.7c0-0.8,0-1.6,0-2.4c-3.9,0.7-7.8,0.2-11.3-1.6c-0.2,0.8-0.4,1.6-0.6,2.3c2.4-0.2,4.8-0.1,7.1,0.5
			c0.1-0.8,0.2-1.6,0.3-2.5c-1.9,0-3.8-0.1-5.7-0.1c-1.6,0-1.6,2.5,0,2.5c2.6,0.1,5.2,0,7.9-0.1c1,0,1.7-1.4,0.9-2.1
			c-0.7-0.6-1.5-0.8-2.4-0.8c-1.4,0-2.7,0.1-4.1,0.1c-2.6,0-5.3,0.1-7.9,0.1c0.1,0.8,0.2,1.6,0.3,2.5c1.7-0.4,3.3-0.6,5-0.5
			c0-0.8,0-1.7,0-2.5c-5.4,0-10.9,0-16.3,0c-1.6,0-1.6,2.5,0,2.5c4.9,0,9.8-0.3,14.7-1c1.4-0.2,1-2.4-0.3-2.5
			c-5.8,0-11.7,0-17.5,0.1c-1.4,0-1.8,2.2-0.3,2.5c3.6,0.6,7.2,0.4,10.7-0.8c1.2-0.4,1.2-2.6-0.3-2.5c-5.3,0.6-10.6,1.3-15.9,1.1
			c-1.6,0-1.6,2.4,0,2.5c4.8,0.2,9.5,0,14.3-0.4c1.6-0.2,1.6-2.4,0-2.5C43.4,21,38.1,22,33.1,24.2c-1.1,0.5-0.6,2.5,0.6,2.3
			c4-0.4,8-0.9,12-1.3c1.6-0.2,1.6-2.5,0-2.5c-2.8,0.1-5.6,0.2-8.4,0.3c-2.3,0.1-5-0.1-7,1.2c-0.9,0.6-0.8,2,0.3,2.3
			c3.1,0.8,6.3-0.1,8.6-2.3c1.1-1.1-0.3-2.5-1.5-2c-2.4,1.1-4.8,2.1-7.2,3.2c0.6,0.6,1.1,1.1,1.7,1.7c0.5-1.1,1.1-2,2-2.8
			c-0.7-0.5-1.3-1-2-1.5c-0.6,0.9-1.4,1.6-2.2,2.3c0.7,0.5,1.3,1,2,1.5c1-2,2.3-3.9,3.8-5.6c-0.7-0.4-1.4-0.8-2.1-1.2
			c-0.2,1.2-0.8,2.3-1.8,3c0.6,0.6,1.1,1.1,1.7,1.7c1.7-2.5,3.5-4.9,5.3-7.3c0.9-1.2-1-2.4-2-1.5c-1.5,1.4-3,2.7-4.5,4.1
			c-1,0.9,0.3,2.8,1.5,2c2.7-1.8,5.5-3.4,8.4-4.7c-0.6-0.6-1.1-1.1-1.7-1.7c-0.6,1.4-1.5,2.4-2.9,3c0.5,0.7,1,1.3,1.5,2
			c1.7-1.9,3-4,4-6.3c0.6-1.4-1.6-2.1-2.3-1c-1,1.6-2,3.1-3,4.7c-0.7,1-1.6,3-2.9,3.1c0.3,0.7,0.6,1.4,0.9,2.1
			c1.7-2,3.6-3.5,5.9-4.7c-0.5-0.7-1-1.3-1.5-2c-2.1,1.6-4.7,2.6-7.3,2.8c0.2,0.8,0.4,1.6,0.6,2.3c2.2-1.2,4.5-2,6.9-2.6
			C42.1,18.3,41.4,15.8,39.8,16.2L39.8,16.2z"/>
	</g>
</g>
<g>
	<g>
		<path d="M49.8,35.8C49.8,35.6,49.8,35.6,49.8,35.8C49.7,35.9,49.7,35.9,49.8,35.8C49.7,35.8,49.8,35.8,49.8,35.8
			c0.2-0.1,0.2-0.1,0.1-0.1c0.3-0.2,0.6-0.4,0.9-0.5c0.5-0.3,1.2-0.5,1.9-0.6c0.7-0.2,1.2-0.2,1.9-0.2c0.4,0,0.8,0,1.2,0
			c0.4,0,0.5,0.1,0.9,0.1c0.7,0.1,1.4-0.2,1.5-0.9c0.2-0.6-0.2-1.4-0.9-1.5c-1.9-0.4-3.9-0.3-5.8,0.2c-1.7,0.5-4.4,1.4-4.3,3.5
			c0,0.7,0.6,1.2,1.2,1.2C49.2,37,49.8,36.4,49.8,35.8L49.8,35.8z"/>
	</g>
</g>
<g>
	<g>
		<path d="M36.7,26.1c1.7,0.7,3.5,1,5.3,1c0-1.7,0-3.3,0-5c-2.7,0.2-5.5,0.6-8.1,1.3c-1.9,0.5-2.6,3.7-0.6,4.6
			c2.2,1,4.4,0.7,6.2-0.9c1.7-1.5,2.3-3.8,2.4-6c0-1,0-2-0.5-2.9c-0.7-1.2-2.3-1.7-3.6-1.3c-1,0.3-2,1-2.9,1.6
			c-1.1,0.6-2.2,1.2-3.3,1.9c1.1,1.1,2.3,2.3,3.4,3.4c1.7-2.4,3.8-5,6.8-5.5c1.7-0.3,3.4,0.1,5.1,0.4c1.7,0.3,3.4,0.6,5,1
			c3,0.8,5.9,1.9,8.1,4c1.5,1.5,3,2.3,5.1,2.5c1.6,0.2,3,0.7,4.3,1.7c2.1,1.5,4.6-1.4,3.4-3.4c-2.1-3.6-5.9-5.4-9.8-6.5
			c-3.5-1-7.5-1.3-10.4-3.5c-0.8-0.6-1.3-1.4-2.2-1.9c-1.4-0.8-2.8-0.3-4.1,0.3c-2.2,1-4.5,2-6.7,3c-3.7,1.7-8.7,3.2-9.9,7.6
			c-0.4,1.7,0.8,3,2.4,3.2c2.5,0.2,4.9,0.3,7.4,0.3c-0.2-1.6-0.4-3.3-0.7-4.9c-3,0.6-6.1,1.1-9.1,1.7c0.4,1.6,0.9,3.2,1.3,4.8
			c8.2-3,17.2-4.1,25.9-2.9c1.3,0.2,2.7-0.3,3.1-1.7c0.3-1.2-0.4-2.9-1.7-3.1c-9.6-1.3-19.4-0.4-28.5,2.9c-3,1.1-1.8,5.4,1.3,4.8
			c3-0.6,6.1-1.1,9.1-1.7c2.8-0.5,2.1-5-0.7-4.9c-2.5,0.1-4.9,0-7.4-0.3c0.8,1.1,1.6,2.1,2.4,3.2c0.5-2,3.9-2.9,5.6-3.7
			c1.5-0.7,3-1.3,4.5-2c0.7-0.3,1.5-0.7,2.2-1c0.4-0.2,0.7-0.3,1.1-0.5c0.1-0.1,0.3-0.1,0.4-0.2c0.6-0.2,0.6-0.2,0.1-0.2
			c-0.4-0.2-0.7-0.4-1.1-0.6c0.8,0.7,1.5,1.5,2.4,2.1c0.8,0.6,1.8,1.1,2.7,1.5c2,0.9,4.1,1.4,6.2,1.9c3.5,0.8,7.8,1.6,9.7,4.9
			c1.1-1.1,2.3-2.3,3.4-3.4c-1.7-1.2-3.7-2-5.7-2.3c-0.8-0.1-1.5-0.1-2.1-0.6c-0.7-0.6-1.3-1.3-2-1.8c-3-2.4-6.7-3.6-10.4-4.4
			c-3.9-0.8-8.3-2-12.2-0.8c-3.9,1.2-6.6,4.4-8.9,7.6c-1.5,2.1,1.4,4.6,3.4,3.4c1-0.5,1.9-1.1,2.9-1.6c0.8-0.4,1.7-1.2,2.5-1.4
			c-0.4,0-0.9,0-1.3,0c0.1,0,0.2,0,0.3,0c-0.4-0.2-0.7-0.4-1.1-0.6c-0.3-0.3-0.2-1.3-0.4-0.4c0,0.3,0,0.6,0,0.8c0,0.5-0.1,1-0.3,1.4
			c-0.1,0.3-0.3,0.4-0.5,0.6c-0.3,0.2-0.6,0-0.2,0.2c-0.2,1.5-0.4,3-0.6,4.6c2.2-0.6,4.5-1,6.8-1.1c3.2-0.2,3.2-4.9,0-5
			c-1.4,0-2.6-0.3-3.9-0.8c-1.3-0.5-2.7,0.5-3.1,1.7C34.6,24.4,35.4,25.6,36.7,26.1L36.7,26.1z"/>
	</g>
</g>
<g>
	<g>
		<path d="M56.4,23.9c-0.5,0-1.1,0-1.6,0c-0.3,0-0.7,0.1-1,0.2c-0.3,0.1-0.6,0.3-0.8,0.5c-0.2,0.2-0.4,0.5-0.5,0.8
			c-0.2,0.3-0.2,0.6-0.2,1c0,0.2,0.1,0.4,0.1,0.7c0.1,0.4,0.3,0.8,0.6,1.1c0.2,0.1,0.3,0.3,0.5,0.4c0.4,0.2,0.8,0.3,1.3,0.3
			c0.5,0,1.1,0,1.6,0c0.3,0,0.7-0.1,1-0.2c0.3-0.1,0.6-0.3,0.8-0.5c0.2-0.2,0.4-0.5,0.5-0.8c0.2-0.3,0.2-0.6,0.2-1
			c0-0.2-0.1-0.4-0.1-0.7c-0.1-0.4-0.3-0.8-0.6-1.1c-0.2-0.1-0.3-0.3-0.5-0.4C57.3,24,56.9,23.9,56.4,23.9L56.4,23.9z"/>
	</g>
</g>
<g>
	<g>
		<path d="M59,13.6c-0.1-0.1-0.1-0.1-0.2-0.2c-0.2-0.2-0.5-0.4-0.8-0.5c-0.3-0.2-0.6-0.2-1-0.2c-0.3,0-0.7,0.1-1,0.2
			c-0.3,0.1-0.6,0.3-0.8,0.5c-0.1,0.2-0.3,0.3-0.4,0.5c-0.2,0.4-0.3,0.8-0.3,1.3c0,0.2,0.1,0.4,0.1,0.7c0.1,0.4,0.3,0.8,0.6,1.1
			c0.1,0.1,0.1,0.1,0.2,0.2c0.2,0.2,0.5,0.4,0.8,0.5c0.3,0.2,0.6,0.2,1,0.2c0.3,0,0.7-0.1,1-0.2c0.3-0.1,0.6-0.3,0.8-0.5
			c0.1-0.2,0.3-0.3,0.4-0.5c0.2-0.4,0.3-0.8,0.3-1.3c0-0.2-0.1-0.4-0.1-0.7C59.5,14.3,59.3,13.9,59,13.6L59,13.6z"/>
	</g>
</g>
<g>
	<g>
		<path d="M54,22.7C54,22.7,54,22.7,54,22.7c0,0.1,0,0.4,0.1,0.6c0,0,0-0.1,0-0.1c0,0.2-0.1,0.4-0.1,0.7c0.1-0.8,0.4-1.7,0.8-2.4
			c-0.1,0.2-0.2,0.4-0.3,0.6c0.6-1.4,1.3-2.7,2.1-4c-1.4-0.8-2.9-1.7-4.3-2.5c-0.8,1.5-1.6,3-2.2,4.6c-0.2,0.5-0.1,1.4,0.3,1.9
			c0.3,0.5,0.7,0.8,1.2,1c0.5,0.2,1.1,0.3,1.6,0.1c0.7-0.2,1.1-0.6,1.5-1.1c0.4-0.6,0.7-1.2,1-1.8c0.2-0.5,0.4-0.9,0.5-1.4
			c0.1-0.3,0.2-0.7,0.2-1c0-0.5-0.1-1-0.4-1.5c-0.1-0.2-0.3-0.3-0.4-0.5c-0.2-0.2-0.5-0.4-0.8-0.5c-0.6-0.2-1-0.2-1.6-0.1
			c-1,0.2-1.8,1-2.4,1.7c-0.6,0.6-1.1,1.3-1.6,2.1c-0.7,1.1-1.1,2.3-0.6,3.5c0.4,1,1.2,1.6,2.3,1.7c0.8,0.1,1.5-0.1,2.2-0.5
			c0.5-0.3,1-0.9,1.1-1.5c0.2-0.6,0.1-1.4-0.3-1.9c-0.8-1.2-2.2-1.5-3.4-0.9c-0.1,0-0.1,0.1-0.2,0.1c0.2-0.1,0.4-0.2,0.6-0.3
			c-0.1,0-0.2,0.1-0.3,0.1c0.2,0,0.4-0.1,0.7-0.1c-0.1,0-0.1,0-0.2,0c0.2,0,0.4,0.1,0.7,0.1c0,0-0.1,0-0.1,0
			c0.2,0.1,0.4,0.2,0.6,0.3c0,0-0.1,0-0.1,0c0.2,0.1,0.3,0.3,0.5,0.4c0,0-0.1-0.1-0.1-0.1c0.1,0.2,0.3,0.3,0.4,0.5c0,0,0,0,0-0.1
			c0.1,0.2,0.2,0.4,0.3,0.6c0,0,0-0.1,0-0.1c0,0.2,0.1,0.4,0.1,0.7c0-0.1,0-0.1,0-0.2c0,0.2-0.1,0.4-0.1,0.7c0-0.1,0-0.2,0.1-0.3
			c-0.1,0.2-0.2,0.4-0.3,0.6c0.3-0.6,0.6-1.1,1-1.6c-0.1,0.2-0.3,0.3-0.4,0.5c0.4-0.5,0.9-1.1,1.4-1.5c-0.2,0.1-0.3,0.3-0.5,0.4
			c0.1-0.1,0.2-0.1,0.3-0.1c-0.2,0.1-0.4,0.2-0.6,0.3c0.1,0,0.1,0,0.2,0c-0.9-0.4-1.9-0.8-2.8-1.1c0,0,0,0.1,0,0.1
			c-0.1-0.4-0.2-0.8-0.3-1.3c0,0.1,0,0.1,0,0.2c0-0.2,0.1-0.4,0.1-0.7c-0.1,0.4-0.2,0.8-0.4,1.2c0.1-0.2,0.2-0.4,0.3-0.6
			c-0.3,0.6-0.6,1.2-1,1.8c1.5,0.6,3,1.3,4.6,1.9c0.1-0.2,0.2-0.5,0.3-0.7c-0.1,0.2-0.2,0.4-0.3,0.6c0.5-1.1,1.1-2.2,1.6-3.3
			c0.3-0.6,0.4-1.3,0.3-1.9c-0.2-0.6-0.6-1.2-1.1-1.5c-1.2-0.6-2.7-0.3-3.4,0.9c-0.7,1.1-1.3,2.2-1.9,3.4c-0.3,0.7-0.7,1.5-0.9,2.2
			c-0.1,0.3-0.2,0.6-0.3,0.9c-0.2,0.6-0.3,1.4-0.1,2c0.2,0.6,0.5,1.1,1.1,1.5c0.5,0.3,1.3,0.4,1.9,0.3c0.6-0.2,1.2-0.6,1.5-1.1
			C54.1,24.1,54.3,23.4,54,22.7L54,22.7z"/>
	</g>
</g>
<g>
	<g>
		<path d="M56.4,10.9c-3.1-0.4-6.3,0.3-9,1.9c-0.9,0.5-1.5,1.8-1.1,2.8c0.4,1.1,1.3,1.8,2.4,1.8c2.5,0.2,5.2-0.2,7.6-1.1
			c0.8-0.3,1.5-0.9,1.7-1.7c0.2-0.9,0-1.8-0.6-2.4c-1.3-1.4-3.2-1.5-5-1.6c-1.5-0.1-3-0.1-4.5-0.1c-1.3,0-2.6,1.1-2.5,2.5
			c0.1,1.3,1.1,2.5,2.5,2.5c2,0,4.1,0,6.1,0.3c-0.2,0-0.4-0.1-0.7-0.1c0.3,0,0.5,0.1,0.8,0.2c0.4,0.1-0.5-0.3-0.1,0
			c-0.1-0.1-0.2-0.2-0.3-0.2c0.1,0.1,0.1,0.1,0.2,0.2c0.4-1.4,0.7-2.8,1.1-4.2c-1.1,0.4-2.3,0.7-3.5,0.9c0.2,0,0.4-0.1,0.7-0.1
			c-1.1,0.2-2.3,0.2-3.4,0.1c0.4,1.6,0.8,3.1,1.3,4.7c0.3-0.2,0.7-0.4,1.1-0.5c0.2-0.1,0.2-0.1-0.2,0.1c0.1,0,0.2-0.1,0.3-0.1
			c0.2-0.1,0.3-0.1,0.5-0.2c0.7-0.2,1.5-0.4,2.2-0.5c-0.2,0-0.4,0.1-0.7,0.1c1.1-0.1,2.2-0.2,3.3,0c0.6,0.1,1.4-0.3,1.8-0.7
			c0.4-0.4,0.8-1.1,0.7-1.8c0-0.6-0.2-1.3-0.7-1.8C57.6,11.2,57,11,56.4,10.9L56.4,10.9z"/>
	</g>
</g>
<g>
	<g>
		<path d="M47.8,12.7c-4,1-8.4,3.4-10.5,7.2c-0.7,1.1-0.3,2.8,0.9,3.4c2.3,1.2,4.8-0.1,6.9-1c1.9-0.8,4.7-2,5.7-3.9
			c0.6-1.1,0.4-2.8-0.9-3.4c-2.5-1.2-5.8-0.3-8.4,0.3c-2.6,0.6-5.6,1.4-7.9,3c-1.4,1-1.6,2.6-0.5,3.9c1.1,1.3,3.3,1.1,4.9,1.2
			c1.7,0,3.3,0,5-0.1c3.3-0.2,6.8-0.4,9.9-1.7c1-0.4,1.4-1.9,1.1-2.8c-0.3-1.1-1.3-1.8-2.4-1.8c-6.1-0.4-13-0.7-18.6,2.1
			c-1,0.5-1.4,1.8-1.1,2.8c0.5,2.3,3,2.5,4.9,2.6c2.1,0.2,4.2,0.2,6.3,0.2c4.4,0.1,8.7-0.1,13.1-0.7c2.8-0.4,2.1-4.9-0.7-4.9
			c-4,0-7.9,0.7-11.6,2c-1.5,0.5-2.3,2.2-1.5,3.7c0.7,1.2,1.8,1.5,3.1,1.6c1.4,0.1,2.8,0.1,4.1,0.1c2.7-0.1,5.5-0.4,8.1-0.9
			c2.9-0.6,2-4.7-0.7-4.9c-2.1-0.1-4.1-0.3-6.2-0.1c-2,0.1-4.2,0.3-5.7,1.8c-0.8,0.8-0.9,2.1-0.4,3c1.2,2.3,4.7,2.1,6.9,2
			c2.5-0.1,5.6-0.3,7.6-2c1.4-1.2,0.7-3.8-1.1-4.2c-2-0.4-3.9-0.2-5.7,0.9c-1.5,0.8-1.6,2.7-0.5,3.9c1.3,1.5,3.6,1.6,5.4,1.6
			c2.2,0,4.1-0.5,5.8-1.9c-1.4-0.4-2.8-0.7-4.2-1.1c0.3,1.9,2,3.4,4,3.3c2.7-0.2,3.5-2.9,2.9-5.2c-0.6-2.1-2.8-4-4.9-2.3
			c-1.9,1.5-1,4.3-0.2,6.1c0.7,1.6,2.8,1.4,3.9,0.5c2.1-1.7,1.6-5-0.3-6.7c-1.8-1.5-4.8-1.8-6.8-0.5c-2.5,1.6-2.4,5.5,0.5,6.6
			c3.1,1.2,5.7-1.8,5.1-4.8c-1.1-4.9-10.5-7.5-11.1-1C52,23,54,25.3,56.6,25.4c2.8,0.1,5-2.1,5.3-4.9c0.5-5.7-6.4-8.6-11.1-7.3
			c-2.6,0.7-5.1,3.3-3.7,6.1c1.1,2.2,4,3,6.3,2.8c2.7-0.3,5.2-2.7,4.6-5.6c-0.6-2.7-3.4-4.3-6-4c-2.7,0.3-4.9,2.8-4.3,5.6
			c0.6,2.9,3.8,4.1,6.5,3.3c2.9-0.8,5.8-4.1,3.1-7c-2-2.1-5.8-1.7-8.2-0.6c-1.4,0.6-2.7,1.4-3,3c-0.4,1.8,0.9,3.2,2.5,3.6
			c3,0.7,7.2-0.9,7.3-4.3c0-1.2-0.8-2-1.8-2.4c-2.3-0.9-5.3,0.2-7.4,1.2c-1.1,0.5-2.3,1.2-2.8,2.3c-0.8,1.4-0.2,3.2,1.2,3.9
			c2.8,1.6,5.3-2.7,2.5-4.3c-0.1,0-0.1-0.1-0.2-0.1c0.3,0.3,0.6,0.6,0.9,0.9c0-0.1-0.1-0.1-0.1-0.2c0.1,0.4,0.2,0.8,0.3,1.3
			c0-0.1,0-0.1,0-0.2c-0.1,0.4-0.2,0.8-0.3,1.3c-0.3,0.2-0.2,0.2,0.2-0.1c0.2-0.1,0.5-0.3,0.7-0.4c0.4-0.2,0.8-0.3,1.3-0.5
			c0.8-0.2,1.6-0.6,2.4-0.3c-0.6-0.8-1.2-1.6-1.8-2.4c0.5-0.8,0.6-1,0.2-0.7c-0.2,0.1-0.4,0.1-0.6,0.2c-0.1,0-0.3,0.1-0.4,0
			c-0.8-0.1-0.6,0.1,0.5,0.6c0.1,0.6,0.2,1.3,0.3,1.9c-0.4,0.5-0.4,0.6,0.1,0.3c0.1,0,0.1,0,0.2-0.1c0.4-0.2,0.8-0.3,1.2-0.3
			c0.3,0,0.6-0.1,1,0c-0.1,0,0.8,0.1,0.8,0.1c-0.8-0.8-0.9-1.5-0.3-1.9c-0.1,0.1-0.2,0.1-0.3,0.2c-0.2,0.1-0.6,0.2-0.8,0.3
			c-0.4,0.3-0.1-0.3-0.1,0.1c0-0.1,0.2,0.7,0.1,0.6c0,0,0.9,0.2,0.7,0.3c0,0-0.1-0.7,0-0.6c0.2,0.1-1,0-0.9,0.1
			c-0.3,0-0.5-0.2-0.8-0.2c-0.4-0.1-0.1-0.4,0,0.1c-0.3,1-0.3,1.4,0.1,1.2c0.1,0,0.1-0.1,0.1-0.1c0.2,0,0.6-0.2,0.8-0.2
			c0.4,0,0.8,0,1.2,0c0.7,0.1,1.3,0.3,1.9,0.5c0.4,0.2,0.9,0.5,1.1,1c0.1,0.2,0.1,0.4,0.1,0.7c0,0-0.1,0.5-0.2,0.3
			c-0.1-0.3,0.3,0,0.4,0.2c0,0.2,0,0,0,0.3c0,0.2-0.1,0.3-0.3,0.4c-0.4,0.1-0.4,0.1-0.1,0.1c0.3,0.2,0.9,0.3,1.3,0.5
			c0.1,0.1,0.3,0.3,0.4,0.4c0.3,0,0-0.4,0.3-0.6c0.4-0.1,0.8-0.2,1.3-0.3c1.1,1.2,1.2,2,0.3,2.4c0.3-0.1,0.4-0.1,0.3-0.1
			c0.1,0,0.6,0.1,0.7,0.1c0.5,0,0,0.3,0.1-0.1c0-0.1,0-0.5,0-0.6c1.3,0.2,2.6,0.3,3.9,0.5c-0.2-0.4-0.3-0.9-0.2-1.4
			c-0.1,0.4-0.2,0.8-0.3,1.3c0-0.1,0.1-0.1,0.1-0.2c-0.3,0.3-0.6,0.6-0.9,0.9c0.1,0,0.1-0.1,0.2-0.1c-0.6,0.1-1.3,0.2-1.9,0.3
			c0.1,0,0.1,0,0.2,0.1c-0.4-0.2-0.7-0.4-1.1-0.6c0,0,0,0.2,0,0.3c0.2-0.4,0.4-0.7,0.6-1.1c0,0,0,0,0-0.1c0.4-0.1,0.8-0.2,1.3-0.3
			c0.7-0.1,1,1.3,0.8,0.4c-0.4-2-2.9-2.2-4.2-1.1c-0.6,0.5-1.6,0.4-2.3,0.4c-0.5,0-1,0-1.5-0.1c-0.2,0-0.4-0.1-0.4-0.1
			c-0.2,1.3-0.3,2.6-0.5,3.9c0.6-0.3,1.2-0.5,1.8-0.4c-0.4-1.4-0.7-2.8-1.1-4.2c0.3-0.2-0.4,0-0.5,0.1c-0.4,0.1-0.7,0.2-1.1,0.2
			c-0.7,0.1-1.4,0.2-2,0.2c-0.7,0-1.4,0-2,0c-0.4,0-0.8,0-1.1-0.1c-0.9-0.1-0.3-0.2,0.1,0.5c-0.1,1-0.3,2-0.4,3
			c-0.3,0.3,0.1,0,0.3-0.1c0.3-0.1,0.6-0.1,0.9-0.2c0.8-0.1,1.6-0.1,2.4-0.1c1.6,0,3.2,0.1,4.8,0.2c-0.2-1.6-0.4-3.3-0.7-4.9
			c-1.9,0.4-3.7,0.6-5.6,0.7c-1,0.1-1.9,0.1-2.9,0.1c-0.4,0-0.8,0-1.2,0c-0.3,0-1.7-0.3-0.8,0.1c0.3,0.3,0.6,0.6,0.9,0.9
			c0-0.1-0.1-0.1-0.1-0.2c-0.5,1.2-1,2.4-1.5,3.7c3.3-1.2,6.7-1.8,10.3-1.8c-0.2-1.6-0.4-3.3-0.7-4.9c-3.3,0.5-6.7,0.6-10,0.6
			c-1.6,0-3.2,0-4.8-0.1c-0.8,0-1.7,0-2.5-0.1c-0.4,0-0.8-0.1-1.1-0.1c-0.5-0.1-0.9-0.5-0.2,0.2c0.2,0.4,0.4,0.7,0.6,1.1
			c0-0.1,0-0.1,0-0.2c-0.4,0.9-0.8,1.9-1.1,2.8c2.3-1.1,4.9-1.4,7.4-1.6c2.9-0.1,5.8-0.1,8.7,0.1c-0.4-1.6-0.8-3.1-1.3-4.7
			c-1,0.4-2.1,0.5-3.2,0.6c-1.3,0.2-2.6,0.3-3.9,0.4c-1.3,0.1-2.5,0.1-3.8,0.1c-0.7,0-1.4,0-2.1,0c-0.3,0-0.6,0-1,0
			c-0.2,0-0.3,0-0.5,0c-0.3,0-0.3,0-0.1-0.1c0.4,0.2,0.7,0.4,1.1,0.6c-0.1-0.1-0.1-0.1-0.2-0.2c-0.2,1.3-0.3,2.6-0.5,3.9
			c1.7-1.2,3.8-1.7,5.8-2.2c1.1-0.3,2.1-0.5,3.2-0.7c0.4-0.1,0.8-0.1,1.2-0.2c0.3,0,0.6-0.1,0.9-0.1c0.4,0,0.5,0,0.2-0.1
			c-0.3-1.1-0.6-2.3-0.9-3.4c0.1-0.1,0.1-0.1,0.2-0.2c-0.2,0.1-0.4,0.2-0.6,0.4c-0.3,0.2-0.5,0.3-0.8,0.5c-0.7,0.4-1.3,0.7-2,1.1
			c-0.6,0.3-1.1,0.5-1.7,0.7c-0.3,0.1-0.6,0.2-0.9,0.3c-0.2,0.1-0.4,0.1-0.6,0.2c-0.4,0.1-0.2,0.1,0.5,0.2c0.3,1.1,0.6,2.3,0.9,3.4
			c1.5-2.6,4.7-4.1,7.6-4.9C52.2,16.7,50.9,11.9,47.8,12.7L47.8,12.7z"/>
	</g>
</g>
<g>
	<g>
		<path d="M43.4,61.7c2.4,0.9,5.1,0.9,7.6,0.9c2.8,0,5.6-0.2,8.3-0.5c0.8-0.1,0.8-1.3,0-1.2c-2.7,0.3-5.3,0.5-8,0.5
			c-2.5,0-5.2,0.1-7.6-0.9C42.9,60.2,42.6,61.4,43.4,61.7L43.4,61.7z"/>
	</g>
</g>
</svg>
